<?xml version="1.0" encoding="UTF-8"?>
<!DOCTYPE svg PUBLIC "-//W3C//DTD SVG 1.1//EN" "http://www.w3.org/Graphics/SVG/1.1/DTD/svg11.dtd">
<svg xmlns="http://www.w3.org/2000/svg" version="1.1" width="428px" height="428px"
     style="shape-rendering:geometricPrecision; text-rendering:geometricPrecision; image-rendering:optimizeQuality; fill-rule:evenodd; clip-rule:evenodd"
>
    <g>
        <path style="opacity:0.953" fill="#000000"
              d="M 80.5,8.5 C 161.834,8.33334 243.167,8.5 324.5,9C 348.83,15.8505 360.83,32.0172 360.5,57.5C 372.553,60.3804 380.719,67.7138 385,79.5C 389.782,93.0918 391.949,107.092 391.5,121.5C 397.509,121.334 403.509,121.501 409.5,122C 410.931,122.465 412.097,123.299 413,124.5C 413.842,142.643 409.009,159.143 398.5,174C 404.5,174.333 410.5,174.667 416.5,175C 417.333,175.833 418.167,176.667 419,177.5C 419.114,195.825 413.281,211.991 401.5,226C 406.167,226.333 410.833,226.667 415.5,227C 418.666,228.666 420,231.332 419.5,235C 417.52,257.991 405.853,273.991 384.5,283C 377.779,285.93 370.779,287.764 363.5,288.5C 363.5,293.167 363.5,297.833 363.5,302.5C 378.504,302.333 393.504,302.5 408.5,303C 409.308,303.308 409.975,303.808 410.5,304.5C 413.429,335.409 414.929,366.409 415,397.5C 412.175,408.325 405.342,415.158 394.5,418C 369.167,418.667 343.833,418.667 318.5,418C 302.402,412.702 295.402,401.535 297.5,384.5C 298.402,357.789 299.902,331.122 302,304.5C 302.5,304 303,303.5 303.5,303C 319.83,302.5 336.163,302.333 352.5,302.5C 352.5,297.833 352.5,293.167 352.5,288.5C 332.008,285.846 315.841,276.179 304,259.5C 298.506,250.191 296.506,240.191 298,229.5C 298.903,228.299 300.069,227.465 301.5,227C 306.167,226.667 310.833,226.333 315.5,226C 302.713,211.974 296.88,195.474 298,176.5C 298.75,175.874 299.584,175.374 300.5,175C 306.5,174.667 312.5,174.333 318.5,174C 308.113,159.504 302.946,143.337 303,125.5C 303.5,123.667 304.667,122.5 306.5,122C 312.491,121.501 318.491,121.334 324.5,121.5C 325.046,113.156 325.713,104.822 326.5,96.5C 312.5,96.5 298.5,96.5 284.5,96.5C 284.667,187.834 284.5,279.167 284,370.5C 280.616,396.549 266.116,412.383 240.5,418C 176.833,418.667 113.167,418.667 49.5,418C 26,413.167 11.8333,399 7,375.5C 6.33333,356.5 6.33333,337.5 7,318.5C 7.75044,317.874 8.58377,317.374 9.5,317C 18.4938,316.5 27.4938,316.334 36.5,316.5C 36.0287,227.482 36.5287,138.482 38,49.5C 43.8976,27.0999 58.0642,13.4333 80.5,8.5 Z"/>
    </g>
    <g>
        <path style="opacity:1" fill="#fefafd"
              d="M 83.5,18.5 C 151.503,18.1667 219.503,18.5 287.5,19.5C 279.229,27.3777 274.729,37.0444 274,48.5C 273.667,157.5 273.333,266.5 273,375.5C 267.862,393.637 256.029,404.471 237.5,408C 211.786,410.266 195.286,399.099 188,374.5C 187.667,356.5 187.333,338.5 187,320.5C 186.692,319.692 186.192,319.025 185.5,318.5C 139.542,317.505 93.5423,317.172 47.5,317.5C 47.3333,229.166 47.5,140.833 48,52.5C 52.8809,33.7836 64.7142,22.4502 83.5,18.5 Z"/>
    </g>
    <g>
        <path style="opacity:1" fill="#fefafd"
              d="M 309.5,18.5 C 334.624,17.7901 348.29,29.9568 350.5,55C 350.167,56.8333 349.833,58.6667 349.5,60.5C 339.813,66.1986 333.48,74.5319 330.5,85.5C 314.848,86.4994 299.181,86.8327 283.5,86.5C 283.063,70.7757 283.563,55.1091 285,39.5C 289.705,28.2838 297.872,21.2838 309.5,18.5 Z"/>
    </g>
    <g>
        <path style="opacity:1" fill="#615a70"
              d="M 355.5,67.5 C 364.975,68.4583 371.475,73.4583 375,82.5C 379.809,97.7787 382.143,113.445 382,129.5C 382.833,130.333 383.667,131.167 384.5,132C 390.833,132.333 397.167,132.667 403.5,133C 401.013,150.14 393.846,164.974 382,177.5C 381.104,180.025 381.604,182.192 383.5,184C 391.827,184.5 400.16,184.666 408.5,184.5C 405.785,202.929 397.118,217.929 382.5,229.5C 380.906,232.624 381.572,235.124 384.5,237C 392.493,237.5 400.493,237.666 408.5,237.5C 407.775,248.116 403.442,256.95 395.5,264C 385.743,271.543 374.743,276.376 362.5,278.5C 362.667,230.832 362.5,183.166 362,135.5C 359.333,132.833 356.667,132.833 354,135.5C 353.5,183.166 353.333,230.832 353.5,278.5C 335.67,276.012 321.837,267.345 312,252.5C 309.789,247.702 308.289,242.702 307.5,237.5C 315.507,237.666 323.507,237.5 331.5,237C 333.635,236.241 334.968,234.741 335.5,232.5C 331.571,228.068 327.404,223.735 323,219.5C 315,209.665 309.833,198.498 307.5,186C 316.004,184.696 324.671,184.029 333.5,184C 334.293,182.915 334.96,181.748 335.5,180.5C 329.742,172.904 324.576,164.904 320,156.5C 316.503,148.844 314.336,140.844 313.5,132.5C 319.509,132.666 325.509,132.499 331.5,132C 332.416,131.626 333.25,131.126 334,130.5C 335.27,122.603 335.937,114.603 336,106.5C 336.87,95.0085 340.203,84.3419 346,74.5C 348.825,71.524 351.992,69.1907 355.5,67.5 Z"/>
    </g>
    <g>
        <path style="opacity:1" fill="#010101"
              d="M 156.5,98.5 C 158.527,98.3379 160.527,98.5045 162.5,99C 184.433,110.644 207.766,117.644 232.5,120C 233.333,120.833 234.167,121.667 235,122.5C 235.667,146.167 235.667,169.833 235,193.5C 229.043,238.62 203.877,265.953 159.5,275.5C 115.123,265.953 89.9568,238.62 84,193.5C 83.3333,169.833 83.3333,146.167 84,122.5C 84.8333,121.667 85.6667,120.833 86.5,120C 111.454,117.735 134.787,110.568 156.5,98.5 Z"/>
    </g>
    <g>
        <path style="opacity:1" fill="#664fa3"
              d="M 164.5,110.5 C 184.145,119.936 204.812,125.936 226.5,128.5C 226.667,149.169 226.5,169.836 226,190.5C 222.578,229.255 202.245,254.255 165,265.5C 164.5,213.834 164.333,162.168 164.5,110.5 Z"/>
    </g>
    <g>
        <path style="opacity:1" fill="#664fa3"
              d="M 153.5,110.5 C 154.665,161.998 154.832,213.665 154,265.5C 117.34,253.877 97.0066,228.877 93,190.5C 92.5,169.836 92.3334,149.169 92.5,128.5C 114.01,126.104 134.343,120.104 153.5,110.5 Z"/>
    </g>
    <g>
        <path style="opacity:1" fill="#1b1a1e"
              d="M 311.5,312.5 C 341.5,312.5 371.5,312.5 401.5,312.5C 402.8,337.497 404.133,362.497 405.5,387.5C 406.149,398.053 401.482,404.887 391.5,408C 368.167,408.667 344.833,408.667 321.5,408C 311.187,404.547 306.52,397.38 307.5,386.5C 308.701,361.816 310.034,337.15 311.5,312.5 Z"/>
    </g>
    <g>
        <path style="opacity:1" fill="#fefafd"
              d="M 16.5,326.5 C 70.1667,326.5 123.833,326.5 177.5,326.5C 177.333,341.17 177.5,355.837 178,370.5C 179.732,385.798 186.565,398.298 198.5,408C 149.5,408.667 100.5,408.667 51.5,408C 34.295,404.462 23.1284,394.295 18,377.5C 16.5733,360.548 16.0733,343.548 16.5,326.5 Z"/>
    </g>
</svg>
