<?xml version="1.0" standalone="no"?>
<!DOCTYPE svg PUBLIC "-//W3C//DTD SVG 20010904//EN"
        "http://www.w3.org/TR/2001/REC-SVG-20010904/DTD/svg10.dtd">
<svg version="1.0" xmlns="http://www.w3.org/2000/svg"
     width="512.000000pt" height="512.000000pt" viewBox="0 0 512.000000 512.000000"
     preserveAspectRatio="xMidYMid meet">

    <g transform="translate(0.000000,512.000000) scale(0.100000,-0.100000)"
       fill="#000000" stroke="none">
        <path d="M1255 4600 c-207 -31 -386 -204 -425 -409 -6 -35 -10 -517 -10 -1357
l0 -1302 -141 -4 c-126 -3 -142 -5 -155 -22 -11 -16 -14 -69 -14 -266 0 -280
7 -335 57 -440 68 -141 213 -251 367 -279 79 -14 1812 -15 1911 -1 202 29 382
198 424 398 8 37 11 464 11 1432 l0 1380 221 0 221 0 -6 -22 c-3 -13 -9 -71
-13 -130 l-6 -108 -97 0 c-61 0 -100 -4 -108 -12 -44 -44 24 -316 116 -463
l31 -50 -100 -3 c-124 -3 -129 -9 -109 -129 20 -127 72 -247 146 -340 19 -23
34 -44 34 -47 0 -3 -36 -6 -79 -6 -106 0 -116 -10 -107 -100 15 -166 95 -293
243 -391 71 -46 201 -100 276 -113 l37 -7 0 -69 0 -70 -240 0 c-227 0 -241 -1
-260 -20 -11 -11 -20 -32 -20 -47 0 -16 -9 -211 -21 -435 -19 -374 -19 -412
-5 -461 19 -67 79 -137 144 -169 47 -23 49 -23 432 -23 l385 0 45 24 c82 43
137 114 153 199 4 18 -2 204 -13 415 -11 210 -20 403 -20 430 0 34 -6 53 -20
67 -19 19 -33 20 -240 20 l-220 0 0 69 0 69 68 16 c37 9 110 38 162 63 158 76
277 212 309 354 14 60 14 152 -1 167 -7 7 -44 12 -95 12 l-82 0 52 73 c29 41
63 97 76 126 51 118 77 281 49 309 -8 8 -46 12 -105 12 -51 0 -93 2 -93 5 0 3
20 40 45 83 54 94 90 200 105 310 10 72 9 87 -5 108 -14 23 -21 24 -109 24
l-93 0 -11 123 c-27 288 -113 460 -254 508 l-53 18 -6 83 c-14 197 -160 360
-358 398 -63 12 -2347 12 -2426 0z m2037 -125 c-43 -49 -78 -111 -96 -174 -14
-49 -16 -226 -16 -1686 0 -1800 4 -1692 -63 -1804 -150 -251 -559 -262 -720
-18 -67 101 -71 122 -77 432 l-5 279 -25 13 c-19 10 -176 13 -697 13 l-673 0
0 1295 c0 914 3 1310 11 1347 27 127 113 237 228 292 l66 31 730 5 c402 3 873
6 1049 8 l318 2 -30 -35z m451 -3 c118 -52 197 -176 197 -310 l-1 -67 -44 -27
c-49 -30 -111 -116 -134 -186 l-14 -42 -234 0 -235 0 4 213 c3 196 5 216 27
264 26 59 103 136 158 159 90 38 184 37 276 -4z m356 -481 c85 -46 151 -253
151 -475 0 -142 3 -146 127 -146 l95 0 -6 -45 c-17 -113 -90 -268 -171 -365
-35 -42 -39 -51 -35 -80 4 -32 32 -40 151 -40 l117 0 -14 -62 c-28 -120 -119
-271 -205 -339 -55 -43 -64 -64 -44 -95 15 -23 19 -24 140 -24 69 0 125 -4
125 -8 0 -5 -7 -33 -16 -63 -41 -140 -149 -241 -322 -303 -126 -45 -112 -131
-112 679 0 692 0 705 -20 725 -24 24 -43 25 -64 4 -14 -14 -16 -93 -16 -726
l0 -711 -42 7 c-61 10 -179 62 -241 106 -87 63 -167 190 -167 265 l0 25 119 0
c125 0 151 8 151 48 0 10 -35 53 -78 97 -43 44 -94 109 -114 145 -34 60 -78
184 -78 216 0 11 24 14 117 14 94 0 120 3 135 17 28 25 22 48 -26 107 -81 100
-152 255 -169 369 l-6 37 94 0 c67 0 98 4 108 14 10 10 16 52 20 143 10 210
49 354 120 430 56 61 107 71 176 34z m361 -2473 c0 -24 7 -167 15 -319 22
-422 22 -449 -5 -496 -13 -24 -40 -51 -64 -64 -40 -24 -45 -24 -366 -27 -371
-4 -412 1 -465 54 -19 18 -38 50 -44 69 -6 24 -4 150 10 403 10 202 19 379 19
395 l0 27 450 0 450 0 0 -42z m-2240 -317 c0 -120 5 -243 10 -272 16 -83 70
-187 135 -257 l57 -62 -693 0 c-382 0 -723 5 -758 10 -180 26 -325 172 -352
353 -5 34 -9 149 -9 255 l0 192 805 0 805 0 0 -219z"/>
        <path d="M1956 3684 c-154 -79 -380 -149 -561 -174 -49 -7 -96 -17 -102 -22
-21 -17 -18 -724 3 -825 47 -228 162 -420 326 -546 86 -66 232 -137 341 -167
l78 -22 90 26 c347 100 579 352 653 709 21 101 24 808 4 824 -7 6 -64 18 -126
27 -182 28 -388 93 -551 175 -33 17 -66 31 -73 31 -7 -1 -44 -17 -82 -36z m34
-870 l0 -765 -22 6 c-135 38 -254 109 -359 215 -71 71 -94 103 -133 181 -88
178 -89 185 -94 592 -3 291 -1 358 10 361 7 2 64 13 127 25 123 24 287 74 391
120 36 16 68 29 73 30 4 1 7 -344 7 -765z m220 719 c130 -52 252 -87 373 -109
50 -9 98 -18 105 -20 20 -6 17 -631 -4 -732 -44 -214 -164 -395 -337 -509 -65
-43 -172 -92 -229 -107 l-28 -6 0 766 c0 421 3 764 8 762 4 -1 54 -22 112 -45z"/>
    </g>
</svg>
